<?xml version="1.0" ?><svg style="enable-background:new 0 0 48 48;" version="1.1" viewBox="0 0 48 48" xml:space="preserve" xmlns="http://www.w3.org/2000/svg" xmlns:xlink="http://www.w3.org/1999/xlink"><g id="Icons"><g><path d="M24.71834,18.20648c0-0.44166-0.00747-0.8835,0.00336-1.32489    c0.00494-0.20117-0.05955-0.27674-0.26822-0.27525c-1.08553,0.00776-2.17116,0.0073-3.2567,0.00019    c-0.19901-0.0013-0.27328,0.05284-0.27298,0.26515c0.00557,3.9995,0.00547,7.99901,0.00016,11.9985    c-0.00028,0.20775,0.06607,0.27012,0.26934,0.2688c1.13553-0.00739,2.27116-0.00799,3.40667,0.00049    c0.20661,0.00154,0.26457-0.06224,0.26377-0.26792c-0.00739-1.89974-0.0098-3.79954-0.00047-5.69926    c0.00231-0.46912,0.03112-0.94058,0.08669-1.40632c0.06068-0.50848,0.2235-0.98923,0.58079-1.37705    c0.4587-0.49789,1.0546-0.61013,1.6979-0.59808c0.89791,0.01683,1.45742,0.43513,1.71398,1.29464    c0.16535,0.55392,0.17858,1.12344,0.17887,1.69417c0.00106,2.02118,0.00018,4.04236,0.00076,6.06354    c0.00008,0.28239,0.00918,0.29171,0.28682,0.29192c1.10701,0.00085,2.21401,0.00054,3.32102,0.00031    c0.34505-0.00007,0.34688-0.00059,0.34547-0.34074c-0.01004-2.44886-0.01655-4.89775-0.0341-7.34656    c-0.00539-0.75021-0.10608-1.49195-0.31152-2.21513c-0.31451-1.10717-0.90703-2.01019-1.99533-2.4818    c-1.13861-0.49342-2.33103-0.58267-3.53657-0.28695C26.15761,16.71946,25.33518,17.30341,24.71834,18.20648z M18.56425,16.88576    c0.00093-0.21702-0.05699-0.28196-0.2739-0.28018c-1.12821,0.00926-2.25657,0.00866-3.3848,0.00037    c-0.21142-0.00155-0.28266,0.05766-0.28232,0.27811V28.8434l0.00006,0.0162c-0.00032,0.21842,0.06686,0.28149,0.28058,0.27987    c1.12822-0.00856,2.25658-0.0087,3.3848,0.00011c0.21392,0.00167,0.27676-0.05839,0.27577-0.27831L18.56425,16.88576z     M14.32483,12.71588c0.00021,1.24679,1.02129,2.29079,2.26991,2.27827c1.2884-0.01291,2.28811-0.98333,2.28578-2.2808    c-0.00237-1.32008-1.02013-2.28164-2.28819-2.27428C15.24008,10.44692,14.32721,11.52921,14.32483,12.71588z" style="fill:#0097D3;"/><path d="    M24.71834,18.20648c0-0.44166-0.00747-0.8835,0.00336-1.32489c0.00494-0.20117-0.05955-0.27674-0.26822-0.27525    c-1.08553,0.00776-2.17116,0.0073-3.2567,0.00019c-0.19901-0.0013-0.27328,0.05284-0.27298,0.26515    c0.00557,3.9995,0.00547,7.99901,0.00016,11.9985c-0.00028,0.20775,0.06607,0.27012,0.26934,0.2688    c1.13553-0.00739,2.27116-0.00799,3.40667,0.00049c0.20661,0.00154,0.26457-0.06224,0.26377-0.26792    c-0.00739-1.89974-0.0098-3.79954-0.00047-5.69926c0.00231-0.46912,0.03112-0.94058,0.08669-1.40632    c0.06068-0.50848,0.2235-0.98923,0.58079-1.37705c0.4587-0.49789,1.0546-0.61013,1.6979-0.59808    c0.89791,0.01683,1.45742,0.43513,1.71398,1.29464c0.16535,0.55392,0.17858,1.12344,0.17887,1.69417    c0.00106,2.02118,0.00018,4.04236,0.00076,6.06354c0.00008,0.28239,0.00918,0.29171,0.28682,0.29192    c1.10701,0.00085,2.21401,0.00054,3.32102,0.00031c0.34505-0.00007,0.34688-0.00059,0.34547-0.34074    c-0.01004-2.44886-0.01655-4.89775-0.0341-7.34656c-0.00539-0.75021-0.10608-1.49195-0.31152-2.21513    c-0.31451-1.10717-0.90703-2.01019-1.99533-2.4818c-1.13861-0.49342-2.33103-0.58267-3.53657-0.28695    C26.15761,16.71946,25.33518,17.30341,24.71834,18.20648z M18.56425,16.88576c0.00093-0.21702-0.05699-0.28196-0.2739-0.28018    c-1.12821,0.00926-2.25657,0.00866-3.3848,0.00037c-0.21142-0.00155-0.28266,0.05766-0.28232,0.27811V28.8434l0.00006,0.0162    c-0.00032,0.21842,0.06686,0.28149,0.28058,0.27987c1.12822-0.00856,2.25658-0.0087,3.3848,0.00011    c0.21392,0.00167,0.27676-0.05839,0.27577-0.27831L18.56425,16.88576z M14.32483,12.71588    c0.00021,1.24679,1.02129,2.29079,2.26991,2.27827c1.2884-0.01291,2.28811-0.98333,2.28578-2.2808    c-0.00237-1.32008-1.02013-2.28164-2.28819-2.27428C15.24008,10.44692,14.32721,11.52921,14.32483,12.71588z" style="fill:none;stroke:#303030;stroke-width:0.7;stroke-linecap:round;stroke-linejoin:round;stroke-miterlimit:10;"/><g><path d="M32.85658,35.29837c0-0.103-0.00174-0.20605,0.00078-0.30899     c0.00115-0.04692-0.01389-0.06454-0.06255-0.06419c-0.25316,0.00181-0.50635,0.0017-0.75952,0.00005     c-0.04641-0.00031-0.06373,0.01232-0.06366,0.06184c0.0013,0.93275,0.00128,1.86551,0.00004,2.79827     c-0.00006,0.04845,0.01541,0.063,0.06281,0.06269c0.26483-0.00172,0.52968-0.00187,0.7945,0.00011     c0.04819,0.00036,0.0617-0.01451,0.06152-0.06248c-0.00172-0.44305-0.00229-0.88612-0.00011-1.32917     c0.00054-0.10941,0.00726-0.21936,0.02021-0.32798c0.01415-0.11859,0.05213-0.23071,0.13545-0.32115     c0.10698-0.11612,0.24595-0.1423,0.39598-0.13948c0.20941,0.00393,0.3399,0.10148,0.39973,0.30193     c0.03856,0.12918,0.04165,0.26201,0.04171,0.39511c0.00025,0.47137,0.00004,0.94275,0.00018,1.41412     c0.00002,0.06586,0.00214,0.06803,0.06689,0.06808c0.25817,0.0002,0.51635,0.00013,0.77452,0.00007     c0.08047-0.00002,0.0809-0.00014,0.08057-0.07947c-0.00234-0.57112-0.00386-1.14224-0.00795-1.71335     c-0.00126-0.17496-0.02474-0.34795-0.07265-0.51661c-0.07335-0.25821-0.21154-0.46881-0.46535-0.5788     c-0.26554-0.11507-0.54364-0.13589-0.82479-0.06692C33.19224,34.95157,33.00043,35.08776,32.85658,35.29837z M31.42015,36.38931     c0-0.46632-0.00083-0.93264,0.00118-1.39895c0.00022-0.05061-0.01329-0.06576-0.06388-0.06534     c-0.26312,0.00216-0.52627,0.00202-0.7894,0.00008c-0.04931-0.00036-0.06592,0.01345-0.06584,0.06486     c0.00142,0.93097,0.00141,1.86194,0.00001,2.79291c-0.00008,0.05094,0.01559,0.06565,0.06544,0.06527     c0.26312-0.002,0.52628-0.00203,0.7894,0.00003c0.04989,0.00039,0.06455-0.01362,0.06432-0.06491     C31.41928,37.31861,31.42015,36.85396,31.42015,36.38931z M30.43262,34.01786c0.00005,0.29078,0.23818,0.53425,0.52938,0.53133     c0.30048-0.00301,0.53363-0.22933,0.53308-0.53192c-0.00055-0.30787-0.23791-0.53212-0.53365-0.5304     C30.64607,33.4887,30.43318,33.74111,30.43262,34.01786z" style="fill:#303030;"/></g><g><path d="M28.4914,35.19538c0-0.46019,0-0.92037,0-1.38511c0.30934,0,0.61408,0,0.93436,0     c0,1.34234,0,2.6848,0,4.03205c-0.25744,0-0.52864,0-0.80524,0c-0.01259-0.13672-0.02524-0.27401-0.03897-0.42318     c-0.01688,0.01781-0.02703,0.02573-0.03368,0.03593c-0.18154,0.27838-0.44839,0.41696-0.76971,0.44865     c-0.54948,0.0542-1.01062-0.19698-1.24352-0.70024c-0.26117-0.56437-0.25318-1.13889,0.05311-1.68376     c0.35221-0.62656,1.05794-0.75591,1.5708-0.55843C28.28717,35.01081,28.39552,35.08861,28.4914,35.19538z M28.49958,36.37169     c-0.0051-0.0002-0.0102-0.0004-0.01531-0.0006c0-0.11156,0.01301-0.225-0.00271-0.33431     c-0.03254-0.22621-0.203-0.40326-0.41097-0.44879c-0.24492-0.05361-0.48029,0.03492-0.61573,0.23166     c-0.09128,0.13259-0.13456,0.28215-0.14882,0.44009c-0.02079,0.2303-0.00048,0.45411,0.12237,0.65821     c0.12313,0.20456,0.35092,0.30649,0.60019,0.26871c0.21623-0.03277,0.39616-0.19381,0.43992-0.41792     C28.49381,36.63931,28.49019,36.50423,28.49958,36.37169z" style="fill:#303030;"/><path d="M20.68412,37.84299c0-1.34459,0-2.68697,0-4.03333c0.30541,0,0.60858,0,0.91911,0     c0,0.76197,0,1.525,0,2.30424c0.01849-0.02374,0.02678-0.03355,0.03416-0.04399c0.25682-0.36334,0.51324-0.72697,0.77128-1.08945     c0.01267-0.0178,0.03939-0.03627,0.05967-0.03638c0.35105-0.00207,0.70212-0.00131,1.05319-0.00097     c0.00337,0,0.00673,0.00279,0.01935,0.00838c-0.35258,0.38931-0.70296,0.77619-1.05765,1.16783     c0.40352,0.57287,0.80669,1.14524,1.21704,1.72781c-0.03152,0-0.05033,0-0.06914,0c-0.33734,0-0.67468-0.00083-1.01201,0.00104     c-0.04262,0.00024-0.06581-0.01265-0.0879-0.0494c-0.21801-0.36276-0.43817-0.72424-0.65779-1.08604     c-0.01097-0.01807-0.02263-0.03571-0.03676-0.05794c-0.07463,0.094-0.14625,0.18192-0.21456,0.27233     c-0.01252,0.01657-0.01605,0.04331-0.01614,0.06539c-0.00107,0.26085-0.00069,0.5217-0.00069,0.78255     c0,0.02127,0,0.04255,0,0.06794C21.2967,37.84299,20.99216,37.84299,20.68412,37.84299z" style="fill:#303030;"/><path d="M24.26011,36.68314c0.01772,0.20173,0.12401,0.33591,0.28898,0.4287     c0.14111,0.07937,0.29587,0.11438,0.45593,0.12108c0.29978,0.01254,0.59493-0.01758,0.88183-0.11066     c0.00912-0.00296,0.0188-0.00417,0.03405-0.00745c0.04053,0.20255,0.08071,0.40333,0.12142,0.60674     c-0.1709,0.07498-0.34718,0.12386-0.52753,0.14259c-0.22944,0.02382-0.46124,0.0411-0.69154,0.03655     c-0.30984-0.00611-0.60483-0.08481-0.86621-0.26058c-0.30246-0.20339-0.47856-0.49176-0.54527-0.84596     c-0.09057-0.48085-0.0207-0.93429,0.26639-1.3392c0.25549-0.36035,0.61556-0.53991,1.05131-0.57596     c0.23937-0.01981,0.47423,0.00024,0.69879,0.09108c0.36201,0.14644,0.57967,0.42267,0.69514,0.78686     c0.09049,0.2854,0.10133,0.57696,0.06236,0.8724c-0.0061,0.04626-0.0223,0.05736-0.06572,0.05704     c-0.34705-0.00255-0.69411-0.00316-1.04118-0.00409c-0.25687-0.00069-0.51374-0.00099-0.77062-0.00133     C24.29476,36.68094,24.28127,36.68214,24.26011,36.68314z M25.34581,36.05556c0-0.02424,0.00136-0.04195-0.00031-0.05937     c-0.00262-0.02724-0.00566-0.05463-0.01137-0.08136c-0.0431-0.20177-0.13665-0.36396-0.35033-0.42251     c-0.36187-0.09915-0.71093,0.17109-0.72694,0.56324C24.61838,36.05556,24.97977,36.05556,25.34581,36.05556z" style="fill:#303030;"/><path d="M19.37522,37.84308c0-0.02576,0-0.04877,0-0.07179c0-0.45897,0.00222-0.91796-0.00164-1.37691     c-0.00092-0.1089-0.01009-0.22064-0.03624-0.32592c-0.10666-0.42938-0.58587-0.40308-0.77772-0.19951     c-0.10114,0.10732-0.15862,0.23038-0.15836,0.3802c0.00085,0.50605-0.00004,1.01209-0.00026,1.51814     c-0.00001,0.02331,0,0.04662,0,0.07486c-0.30831,0-0.61309,0-0.92255,0c0-0.92234,0-1.84658,0-2.77446     c0.30644,0,0.61115,0,0.92138,0c0,0.12404,0,0.24471,0,0.36538c0.00373,0.00158,0.00745,0.00317,0.01118,0.00475     c0.01535-0.02088,0.03062-0.04181,0.04605-0.06264c0.22402-0.30246,0.53284-0.40342,0.89466-0.37159     c0.5283,0.04649,0.83799,0.40052,0.92072,0.91401c0.01738,0.10789,0.025,0.21841,0.02555,0.32779     c0.00262,0.51584,0.00125,1.0317,0.00118,1.54756c0,0.01542-0.00128,0.03083-0.00213,0.05012     C19.99041,37.84308,19.6859,37.84308,19.37522,37.84308z" style="fill:#303030;"/><path d="M14.1169,37.01101c0.54933,0,1.08805,0,1.62984,0c0,0.27987,0,0.55533,0,0.8336     c-0.85203,0-1.70041,0-2.5524,0c0-1.34549,0-2.68797,0-4.03467c0.30673,0,0.61148,0,0.92256,0     C14.1169,34.87482,14.1169,35.93872,14.1169,37.01101z" style="fill:#303030;"/><path d="M16.12281,35.06765c0.30926,0,0.61245,0,0.91909,0c0,0.92599,0,1.84839,0,2.77514     c-0.30621,0-0.61074,0-0.91909,0C16.12281,36.91891,16.12281,35.99493,16.12281,35.06765z" style="fill:#303030;"/><path d="M16.58194,33.7211c0.28039,0.00478,0.47448,0.15657,0.514,0.39117     c0.04961,0.29452-0.14321,0.54139-0.44397,0.5668c-0.17306,0.01462-0.33441-0.01615-0.45794-0.14842     c-0.1355-0.14508-0.16452-0.31797-0.09758-0.50192c0.06788-0.18655,0.21579-0.27531,0.40585-0.30219     C16.53322,33.72217,16.56476,33.7222,16.58194,33.7211z" style="fill:#303030;"/></g></g></g></svg>