<svg height="33" viewBox="0 0 107 33" width="107" xmlns="http://www.w3.org/2000/svg"><g fill="none" transform="translate(.448 .44)"><path d="m12.348 25.56c2.976 0 5.262-.672 6.858-2.016s2.394-3.228 2.394-5.652c0-1.248-.336-2.37-1.008-3.366s-1.5-1.71-2.484-2.142c.744-.384 1.422-.996 2.034-1.836s.918-1.836.918-2.988c0-2.304-.744-4.08-2.232-5.328s-3.756-1.872-6.804-1.872h-11.124c-.264 0-.48.09-.648.27s-.252.402-.252.666v23.364c0 .24.09.45.27.63s.39.27.63.27zm-1.08-15.228h-4.5v-5.112h4.5c.912 0 1.602.234 2.07.702s.702 1.074.702 1.818c0 .768-.24 1.392-.72 1.872s-1.164.72-2.052.72zm.324 10.368h-4.824v-5.652h4.824c.912 0 1.632.27 2.16.81s.792 1.218.792 2.034c0 .792-.258 1.458-.774 1.998s-1.242.81-2.178.81zm22.464 5.22c3.024 0 5.346-.702 6.966-2.106s2.502-3.402 2.646-5.994c.048-.624.072-1.164.072-1.62s-.024-.996-.072-1.62c-.144-2.544-1.05-4.53-2.718-5.958s-3.966-2.142-6.894-2.142-5.226.714-6.894 2.142-2.574 3.414-2.718 5.958c-.024.312-.036.852-.036 1.62l.0004444.2475556c.0023704.6376296.0142223 1.0951111.0355556 1.3724444.144 2.592 1.026 4.59 2.646 5.994s3.942 2.106 6.966 2.106zm0-4.536c-.984 0-1.716-.306-2.196-.918s-.756-1.554-.828-2.826l-.036-1.44.036-1.44c.072-1.248.348-2.184.828-2.808s1.212-.936 2.196-.936 1.716.312 2.196.936.756 1.56.828 2.808c.024.24.036.72.036 1.44s-.012 1.2-.036 1.44c-.072 1.272-.348 2.214-.828 2.826s-1.212.918-2.196.918zm18.54 4.176c.264 0 .48-.09.648-.27s.252-.39.252-.63v-23.76c0-.264-.084-.48-.252-.648s-.384-.252-.648-.252h-4.5c-.264 0-.486.084-.666.252s-.27.384-.27.648v23.76c0 .264.09.48.27.648s.402.252.666.252zm16.704.36c2.328 0 4.158-.732 5.49-2.196s2.046-3.552 2.142-6.264c.024-.312.036-.732.036-1.26 0-.552-.012-.984-.036-1.296-.096-2.616-.816-4.674-2.16-6.174s-3.168-2.25-5.472-2.25c-2.16 0-3.9.696-5.22 2.088v-7.668c0-.264-.084-.48-.252-.648s-.384-.252-.648-.252h-4.644c-.264 0-.486.084-.666.252s-.27.384-.27.648v23.76c0 .264.09.48.27.648s.402.252.666.252h4.284c.264 0 .48-.09.648-.27s.252-.39.252-.63v-1.116c1.296 1.584 3.156 2.376 5.58 2.376zm-2.088-5.004c-1.032 0-1.8-.33-2.304-.99s-.78-1.494-.828-2.502c-.024-.336-.036-.792-.036-1.368l.0007347-.2387755c.0029388-.4613878.0146939-.8257959.0352653-1.0932245.048-.936.33-1.71.846-2.322s1.278-.918 2.286-.918c1.08 0 1.854.318 2.322.954s.738 1.518.81 2.646c.024.24.036.612.036 1.116s-.012.876-.036 1.116c-.072 1.128-.342 2.01-.81 2.646s-1.242.954-2.322.954zm20.124 11.484c.504 0 .876-.252 1.116-.756l10.188-23.58c.048-.144.072-.3.072-.468 0-.192-.078-.366-.234-.522s-.342-.234-.558-.234h-4.248c-.48 0-.84.252-1.08.756l-4.104 10.224-3.996-10.224c-.192-.504-.54-.756-1.044-.756h-4.284c-.216 0-.402.078-.558.234s-.258.354-.306.594c0 .072.036.204.108.396l6.912 16.344-2.844 6.768c-.048.144-.072.3-.072.468 0 .216.072.396.216.54s.324.216.54.216z" fill="#fff"/><path d="m105.048 25.56c.264 0 .48-.09.648-.27s.252-.39.252-.63v-4.752c0-.264-.084-.486-.252-.666s-.384-.27-.648-.27h-4.752c-.264 0-.486.09-.666.27s-.27.402-.27.666v4.752c0 .264.09.48.27.648s.402.252.666.252z" fill="#ff4c60"/></g></svg>